<?xml version="1.0" encoding="utf-8"?>
<!-- Generator: Adobe Illustrator 23.0.0, SVG Export Plug-In . SVG Version: 6.00 Build 0)  -->
<svg version="1.1" id="Layer_1" xmlns="http://www.w3.org/2000/svg" xmlns:xlink="http://www.w3.org/1999/xlink" x="0px" y="0px"
	 viewBox="0 0 180.9 219.6" style="enable-background:new 0 0 180.9 219.6;" xml:space="preserve">
<style type="text/css">
	.st0{fill:#F2663D;}
	.st1{fill:none;stroke:#414042;stroke-linecap:round;stroke-miterlimit:10;}
	.st2{display:none;fill:#FFFFFF;}
</style>
<title>Chingari_icon</title>
<path class="st0" d="M13,112.8c4,4,8.4,7.7,13,11c1.8,1.3,4.2,0.9,5.5-0.9c0.5-0.7,0.8-1.6,0.7-2.5c-1.1-24.7,1.1-101,66.4-120.2
	c2-0.6,4,0.6,4.6,2.5c0.2,0.6,0.2,1.3,0,1.9C86.4,76.2,128.8,98,148,64.3c1-1.8,3.2-2.4,5-1.4c0.5,0.3,0.9,0.7,1.2,1.2
	c16.8,26,12.4,49.2,7.9,61.4c-1,2.8,0.4,5.8,3.2,6.8c1.4,0.5,3,0.4,4.3-0.3c2.8-1.6,5.5-3.5,7.8-5.8c0.8-0.8,2.1-0.8,2.8,0
	c0.4,0.4,0.6,0.9,0.6,1.4v0.1c0.1,49.1-39.6,88.9-88.7,88.9c-46.8,0.1-85.6-36.2-88.7-82.9C3,127.7,3.2,121.8,4,115.9
	c0.4-2.9,3-5,6-4.6C11.1,111.4,12.2,111.9,13,112.8z"/>
<path class="st1" d="M163.4,109.7c-0.4,6.3-1.8,12.5-4,18.4c-1,2.8,0.4,5.8,3.2,6.8c1.4,0.5,3,0.4,4.3-0.3c2.8-1.6,5.5-3.5,7.8-5.8
	c0.8-0.8,2.1-0.8,2.8,0c0.4,0.4,0.6,0.9,0.6,1.4v0.1"/>
<path class="st1" d="M101.6,65.1c9.7,22.3,31.4,23.5,43.7,1.9c1-1.8,3.2-2.4,5-1.4c0.5,0.3,1,0.7,1.3,1.2c5,7.6,8.6,16.1,10.6,25"/>
<path class="st1" d="M43.6,47.2C53.3,27.9,69.5,10.7,96,2.9c2-0.6,4,0.6,4.6,2.5c0.2,0.6,0.2,1.3,0,1.9c-1.2,5.2-2.2,10.4-2.9,15.6"
	/>
<path class="st1" d="M2.7,150.2c-1-4.5-1.7-9.1-2-13.8c-0.4-5.9-0.2-11.9,0.5-17.8c0.4-2.9,3.1-5,6-4.6c1.2,0.2,2.2,0.7,3.1,1.5
	c4,4,8.4,7.7,13,11c1.8,1.3,4.2,0.9,5.5-0.9c0.5-0.7,0.8-1.6,0.7-2.5c-0.5-12.1,0.2-24.3,2-36.3"/>
<path class="st1" d="M162.6,180.4c-27.6,40.5-82.8,50.9-123.3,23.3c-3.4-2.3-6.6-4.8-9.6-7.6"/>
<path class="st2" d="M60.4,129.3c8.8-9.2,21-14.5,33.8-14.5c18.9,0,34.5,10,42.2,26.6c1.6,3.3,0.1,7.3-3.2,8.8
	c-0.9,0.4-1.8,0.6-2.8,0.6h-0.1c-2.6,0-4.9-1.5-6-3.8c-5.8-12.1-16.9-18.3-30-18.3c-9.1,0.1-17.8,3.8-24,10.5c-13.4,14-13.4,36,0,50
	c6.2,6.6,14.9,10.4,24,10.5c13.5,0,25.1-7,30.8-19.4c1.1-2.3,3.4-3.8,6-3.9l0,0c3.7,0,6.6,3,6.6,6.7c0,0.9-0.2,1.9-0.6,2.7
	c-7.7,16.9-23.5,27.8-42.9,27.8c-12.8,0-25-5.3-33.8-14.5C41.7,179.6,41.7,148.9,60.4,129.3L60.4,129.3z"/>
<path class="st2" d="M94.2,216.4c-13.5,0-26.5-5.5-35.8-15.4c-19.6-20.6-19.6-53,0-73.6l0,0c9.4-9.7,22.3-15.3,35.8-15.4
	c19.6,0,36.3,10.4,44.5,27.8c1.2,2.4,1.3,5.3,0.4,7.8c-1.4,3.6-4.9,5.9-8.8,5.9h-0.1c-3.6,0-6.9-2.1-8.5-5.4
	c-5.1-10.8-14.9-16.7-27.5-16.7c-8.3,0-16.3,3.5-22,9.6c-12.4,12.9-12.4,33.2,0,46.1c5.7,6.1,13.7,9.6,22,9.6
	c12.5,0,23.1-6.7,28.3-17.9c2.2-4.7,7.8-6.8,12.5-4.6c2.2,1,3.9,2.8,4.8,5.1c1,2.5,0.8,5.4-0.4,7.8
	C130.9,205.6,114.1,216.4,94.2,216.4z M62.4,131.2c-17.6,18.5-17.6,47.5,0,66c8.2,8.7,19.7,13.7,31.8,13.6
	c17.7,0,32.8-9.7,40.3-26.1c0.6-1.2,0.5-2.6-0.1-3.7c-0.7-1.2-2-1.9-3.4-1.9c-1.5,0-2.9,0.9-3.5,2.3c-6.1,13.2-18.6,21.1-33.4,21.1
	c-9.9,0-19.3-4.1-26-11.3c-14.4-15-14.4-38.8,0-53.8c6.7-7.2,16.1-11.3,26-11.3c14.6,0,26.5,7.2,32.5,19.8c0.6,1.3,2,2.2,3.5,2.2
	h0.1c2.1,0,3.9-1.7,3.9-3.8c0-0.6-0.1-1.2-0.4-1.7c-7.3-15.6-22.1-24.9-39.6-24.9C82.2,117.7,70.7,122.6,62.4,131.2z"/>
</svg>
