<svg width="33" height="27" viewBox="0 0 33 27" fill="none" xmlns="http://www.w3.org/2000/svg">
<path d="M13.59 3.66H2.65C2.06918 3.66 1.51214 3.89073 1.10144 4.30144C0.690735 4.71214 0.460004 5.26918 0.460004 5.85V17.25C0.458315 17.1052 0.485774 16.9615 0.540748 16.8275C0.595722 16.6935 0.677088 16.5719 0.780004 16.47L13.59 3.66Z" fill="#34A853"/>
<path d="M30.37 26.28H2.65C2.06918 26.28 1.51214 26.0493 1.10144 25.6386C0.690735 25.2279 0.460004 24.6708 0.460004 24.09V17.25C0.458315 17.1052 0.485774 16.9615 0.540748 16.8275C0.595722 16.6935 0.677088 16.5719 0.780004 16.47L16.19 1.06C16.2961 0.954333 16.4227 0.871447 16.562 0.816422C16.7013 0.761397 16.8503 0.735392 17 0.74H30.37C30.6576 0.74 30.9424 0.796646 31.2081 0.906704C31.4738 1.01676 31.7152 1.17808 31.9186 1.38144C32.1219 1.5848 32.2832 1.82622 32.3933 2.09192C32.5034 2.35763 32.56 2.64241 32.56 2.93V24.09C32.56 24.6708 32.3293 25.2279 31.9186 25.6386C31.5079 26.0493 30.9508 26.28 30.37 26.28V26.28Z" fill="#4285F4"/>
<path d="M16.19 1.06L0.780004 16.47C0.677088 16.5719 0.595722 16.6935 0.540748 16.8275C0.485774 16.9615 0.458315 17.1052 0.460004 17.25V17.34C0.45998 17.1958 0.516552 17.0574 0.617544 16.9546C0.718536 16.8517 0.855875 16.7926 1 16.79H14.32C14.9008 16.79 15.4579 16.5593 15.8686 16.1486C16.2793 15.7379 16.51 15.1808 16.51 14.6V1.29C16.51 1.14413 16.5679 1.00424 16.6711 0.901091C16.7742 0.797946 16.9141 0.74 17.06 0.74H17C16.8503 0.735392 16.7013 0.761397 16.562 0.816422C16.4227 0.871447 16.2961 0.954333 16.19 1.06Z" fill="#EA4335"/>
<path d="M0.46 17.34C0.460155 17.1291 0.526971 16.9237 0.650896 16.7531C0.774821 16.5824 0.949512 16.4554 1.15 16.39L10.88 13.29C11.3783 13.1311 11.8311 12.8546 12.2001 12.4839C12.5691 12.1131 12.8434 11.6591 13 11.16L16.1 1.44C16.1636 1.23764 16.29 1.06077 16.4607 0.934935C16.6315 0.809102 16.8379 0.740834 17.05 0.739998H17C16.7113 0.741479 16.4347 0.856413 16.23 1.06L0.78 16.47C0.67799 16.5726 0.597216 16.6943 0.542306 16.8281C0.487395 16.962 0.459426 17.1053 0.46 17.25V17.34Z" fill="#FBBC04"/>
</svg>
