<svg width="113" height="112" viewBox="0 0 113 112" fill="none" xmlns="http://www.w3.org/2000/svg">
<path d="M111.926 20.0693C111.88 19.9137 111.833 19.7581 111.771 19.6024C74.9054 19.618 38.0557 19.6024 1.20597 19.618C1.1126 19.7269 1.05036 19.8359 1.03479 19.9759C1.03479 48.5624 1.03479 77.1333 1.01892 105.72C1.25234 107.245 2.09267 108.63 3.21341 109.673C3.26009 109.688 3.36902 109.703 3.41571 109.719C3.99148 110.326 4.81624 110.622 5.59432 110.902C6.1701 110.871 6.73031 111.12 7.30609 111.057H53.057C53.4927 111.042 53.9437 111.12 54.3638 110.949C54.3797 110.887 54.395 110.777 54.4105 110.715C54.4264 110.637 54.4416 110.466 54.4574 110.373C55.4379 104.895 56.3868 99.4021 57.4298 93.9246L57.5231 93.2243C53.2906 93.2085 49.0421 93.2243 44.8095 93.2085C43.7823 93.1775 42.7244 93.2085 41.6972 93.0838C39.9389 93.006 38.1649 93.0683 36.4065 92.8972C34.2278 92.8972 32.0648 92.6948 29.8862 92.6948C28.1744 92.5236 26.4471 92.586 24.7197 92.5082C23.5996 92.3685 22.4478 92.4304 21.3121 92.3836C19.4603 92.1814 17.5773 92.3216 15.7255 92.1192C13.7647 92.135 11.804 91.9635 9.84324 91.9167C9.8588 91.9011 9.87436 91.8389 9.87436 91.8233C10.5279 91.8389 11.166 91.7924 11.8196 91.7768C13.2668 91.5899 14.7296 91.7146 16.1768 91.5121C17.6862 91.5121 19.1802 91.31 20.6896 91.31C22.0279 91.1231 23.3818 91.2322 24.7197 91.0453C26.2918 91.0453 27.8321 90.8431 29.4041 90.8274C30.6957 90.6562 32.0029 90.7496 33.2945 90.5784C34.8039 90.594 36.2978 90.3606 37.8073 90.3763C39.2857 90.2048 40.7948 90.2513 42.2732 90.0957C42.1334 89.5204 42.0242 88.9445 41.9 88.3684C41.7911 88.0106 41.3553 88.0884 41.0752 88.0416C37.6984 87.5589 34.3371 87.0769 30.9758 86.6101C31.1937 86.4386 31.4893 86.5164 31.7383 86.4854C34.3526 86.283 36.9514 86.0495 39.5658 85.863C40.1571 85.832 40.7329 85.7229 41.3242 85.7073C41.0597 84.8983 40.9041 84.0111 40.5461 83.2643C34.9599 82.4085 29.373 81.6459 23.8019 80.7277C25.2492 80.4942 26.7119 80.3855 28.1592 80.2298L28.2836 80.183C32.9054 79.7003 37.5428 79.1556 42.1645 78.7047C48.0309 78.6737 53.8824 78.6888 59.7491 78.7047C59.9355 78.6737 60.2626 78.7666 60.2937 78.5022C60.7761 75.9814 61.243 73.4606 61.7251 70.9393C62.3942 67.4383 63.4524 63.9835 65.0864 60.7933C67.654 55.658 71.7156 51.3008 76.6638 48.4065C81.2856 45.6988 86.6391 44.3916 91.9611 44.1427C93.6884 43.987 95.4313 44.0337 97.1431 44.2516C98.2635 44.5161 99.4151 44.8274 100.302 45.5899C101.033 46.1812 101.469 47.0527 101.796 47.9241C102.512 49.9938 102.916 52.1413 103.259 54.3043C103.274 55.1758 103.43 56.1562 102.963 56.9498C102.527 57.7279 101.656 58.1014 100.831 58.3348C97.8278 59.1129 94.6845 58.3813 91.681 59.1129C89.207 59.6419 86.9038 61.0112 85.3319 62.9877C83.4802 65.2906 82.4997 68.1536 81.955 71.0174C81.535 73.5695 81.0058 76.1214 80.5856 78.6891C83.5423 78.705 86.5147 78.6735 89.4868 78.705C90.6695 78.705 91.8833 79.3584 92.3657 80.4787C92.9882 81.9105 92.8481 83.529 92.6458 85.0384C92.3968 86.7346 91.9922 88.4151 91.2297 89.9712C90.5914 91.2939 89.5335 92.5079 88.0863 92.9747C87.3393 93.2704 86.5301 93.2082 85.7365 93.2082C83.1218 93.2082 80.5075 93.2391 77.8935 93.2082C77.4733 95.1224 77.1932 97.083 76.8197 99.0282C76.1354 102.809 75.466 106.606 74.7812 110.404C74.7656 110.528 74.7501 110.793 74.7501 110.933C75.9794 110.995 77.2088 110.933 78.4381 110.964C87.5572 110.964 96.6918 110.948 105.826 110.964C106.807 110.995 107.803 110.762 108.659 110.279C109.172 110.092 109.483 109.641 109.935 109.392C110.37 109.143 110.495 108.63 110.868 108.303C111.273 107.587 111.693 106.84 111.724 106C111.771 106 111.895 105.984 111.958 105.969C111.91 77.3357 111.957 48.7025 111.926 20.0693Z" fill="url(#paint0_linear)" stroke="#FCD109" stroke-width="0.094"/>
<path d="M15.5381 1.23984C16.8609 0.819681 18.2458 1.09979 19.6 1.00642C45.012 1.02198 70.424 1.00642 95.8356 1.00642C97.3451 0.944173 98.6678 1.80006 100.068 2.23578C101.189 2.68706 102.356 3.04498 103.476 3.52739C103.71 3.62076 103.881 3.82306 104.052 3.99423C104.036 6.04835 104.052 8.11804 104.052 10.1877C104.068 10.7324 103.974 11.2926 104.161 11.8217C104.488 11.8684 104.659 12.1174 104.877 12.3197C105.904 12.7865 106.775 13.549 107.709 14.1715C109.109 15.1674 110.604 16.0389 111.973 17.0659C112.035 17.4705 111.988 17.8907 111.864 18.2642C111.724 18.6999 111.817 19.1667 111.77 19.6024C74.9051 19.618 38.0554 19.6024 1.20567 19.618C1.12786 19.1045 1.26791 18.5909 1.05005 18.1085C1.01893 17.7039 0.878875 17.1748 1.26791 16.8947C2.82407 15.8054 4.47359 14.8251 5.99831 13.6735C6.94787 13.0666 7.86569 12.4441 8.78382 11.8217C8.97056 11.5105 8.90831 11.1214 8.90831 10.7791C8.90831 8.52264 8.90831 6.26622 8.92387 4.00979C9.45297 3.32509 10.3714 3.24728 11.1025 2.90493C12.5815 2.34471 14.0754 1.80006 15.5381 1.23984V1.23984ZM15.6315 1.50439C13.6396 2.2669 11.6322 2.9983 9.64033 3.76081C9.37578 3.80749 9.23541 4.04092 9.09567 4.24322C9.11123 4.36771 9.12679 4.58557 9.12679 4.71006C9.11092 6.57745 9.1268 8.44483 9.11092 10.3122C9.1268 10.7791 9.06424 11.2459 9.23542 11.6661C9.03312 11.8684 8.81556 12.0707 8.56627 12.2263C6.30985 13.6891 4.13123 15.2763 1.87481 16.7236C1.48577 16.957 1.05005 17.2682 1.17454 17.7817C1.09674 18.0619 1.23679 18.2953 1.53246 18.2175C6.41878 18.1863 11.2895 18.2486 16.1762 18.1708C23.4434 18.1708 30.6951 18.1863 37.9623 18.1708L38.0712 18.1241C38.398 18.2019 38.7245 18.1708 39.0669 18.1708C52.2319 18.1708 65.397 18.1863 78.5774 18.1708C82.7169 18.1863 86.8719 18.1708 91.0266 18.1708C97.8737 18.1708 104.737 18.233 111.584 18.2019C111.786 18.1552 111.848 18.0152 111.77 17.7662C111.754 17.5172 111.848 17.1748 111.584 17.0192C110.494 16.5057 109.561 15.7121 108.518 15.0896C108.145 14.7784 107.662 14.6072 107.382 14.187C106.308 13.5801 105.312 12.8332 104.254 12.164C104.051 12.0395 103.896 11.8372 103.725 11.6661C103.818 11.3393 103.849 10.9814 103.849 10.639C103.834 8.66269 103.849 6.68638 103.834 4.71006C103.881 4.39883 103.865 4.04092 103.585 3.83862C101.717 3.16947 99.8657 2.45364 98.0136 1.76893C97.4378 1.48883 96.7998 1.33321 96.1774 1.23984H16.6424C16.3007 1.2554 15.9739 1.42658 15.6315 1.50439V1.50439Z" fill="#F8F3B5" stroke="#F8F3B5" stroke-width="0.094"/>
<path d="M9.12679 4.71006C10.4962 5.28584 11.9587 5.61263 13.344 6.17284C14.0909 6.46851 14.3243 7.27771 14.6511 7.9313C14.324 8.25809 13.935 8.52263 13.546 8.77162C12.1143 9.73643 10.6515 10.6701 9.23541 11.6661C9.06423 11.2459 9.12679 10.7791 9.11092 10.3122C9.12679 8.44483 9.11123 6.57744 9.12679 4.71006V4.71006ZM99.6168 6.17284C101.002 5.62819 102.449 5.25471 103.834 4.71006C103.85 6.68637 103.834 8.66269 103.85 10.639C103.85 10.9814 103.819 11.3393 103.725 11.6661C102.512 10.8257 101.282 10.0321 100.068 9.20734C99.477 8.77162 98.8234 8.44483 98.2943 7.91573C98.6211 7.26215 98.8701 6.46851 99.6168 6.17284V6.17284Z" fill="#F7B402" stroke="#F7B402" stroke-width="0.094"/>
<path d="M32.8737 6.81087C34.5855 6.40627 36.4995 7.9313 36.3595 9.72088C36.375 11.4793 34.5229 12.911 32.827 12.5064C32.1423 12.273 31.4884 11.9151 31.0685 11.3082C30.5239 10.4834 30.3991 9.37852 30.8351 8.47595C31.1464 7.60451 31.9867 7.01317 32.8737 6.81087V6.81087ZM77.2707 7.79125C77.9865 6.99761 79.1225 6.54632 80.1807 6.82643C80.9744 7.05986 81.7524 7.57339 82.0948 8.35146C82.7795 9.68975 82.2504 11.4949 80.9121 12.1952C79.7291 12.8487 78.2355 12.5375 77.333 11.5883C76.4148 10.5456 76.3523 8.83387 77.2707 7.79125V7.79125Z" fill="#BDA727" stroke="#BDA727" stroke-width="0.094"/>
<path d="M13.5463 8.77162C13.9353 8.52264 14.3243 8.25809 14.6514 7.9313L14.7601 8.04023C14.869 8.84943 14.7912 9.67419 14.8223 10.4834C14.7756 12.911 14.869 15.3541 14.7601 17.7817C10.2317 17.7817 5.70357 17.7506 1.17485 17.7817C1.05036 17.2682 1.48608 16.957 1.87512 16.7236C4.13154 15.2763 6.31015 13.6891 8.56658 12.2263C8.81587 12.0707 9.03342 11.8684 9.23572 11.6661C10.6518 10.6701 12.1146 9.73644 13.5463 8.77162V8.77162ZM98.1384 8.46039C98.1384 8.25809 98.1854 8.08692 98.294 7.91574C98.8231 8.44483 99.477 8.77163 100.068 9.20735C101.282 10.0321 102.511 10.8257 103.725 11.6661C103.896 11.8372 104.052 12.0395 104.254 12.164C105.312 12.8332 106.308 13.5801 107.382 14.187C107.662 14.6072 108.144 14.7784 108.518 15.0896C109.561 15.7121 110.494 16.5057 111.584 17.0192C111.848 17.1748 111.755 17.5172 111.77 17.7662C107.242 17.7817 102.729 17.7506 98.2007 17.7817C98.1229 17.1593 98.1695 16.5368 98.154 15.9299C98.1543 13.4401 98.1232 10.9502 98.1384 8.46039V8.46039Z" fill="#F7E62D" stroke="#F7E62D" stroke-width="0.094"/>
<path d="M111.771 17.7662C107.242 17.7817 102.729 17.7506 98.201 17.7817C98.1232 17.1593 98.1698 16.5368 98.1543 15.9299C98.1543 13.4401 98.1232 10.9502 98.1384 8.46039C98.1384 8.25809 98.1854 8.08692 98.294 7.91574C98.6211 7.26216 98.8698 6.46852 99.6168 6.17285C101.002 5.6282 102.449 5.25472 103.834 4.71007C103.881 4.39884 103.865 4.04092 103.585 3.83862C101.718 3.16948 99.8661 2.45364 98.0139 1.76894C97.4381 1.48883 96.8001 1.33321 96.1777 1.23985H16.6427C16.3003 1.25541 15.9735 1.42658 15.6312 1.50439C13.6393 2.26691 11.6319 2.9983 9.64001 3.76081C9.37546 3.8075 9.2351 4.04092 9.09535 4.24322C9.11092 4.36771 9.12648 4.58557 9.12648 4.71007C10.4959 5.28584 11.9584 5.61264 13.3437 6.17285C14.0906 6.46852 14.324 7.27772 14.6508 7.9313L14.7594 8.04023C14.8684 8.84943 14.7906 9.67419 14.8217 10.4834C14.775 12.911 14.8684 15.3541 14.7594 17.7817C10.231 17.7817 5.70294 17.7506 1.17423 17.7817C1.09642 18.0619 1.23647 18.2953 1.53214 18.2175C6.41846 18.1863 11.2892 18.2486 16.1758 18.1708C23.4431 18.1708 30.6948 18.1863 37.962 18.1708L38.0709 18.1241C38.3977 18.2019 38.7242 18.1708 39.0665 18.1708C52.2316 18.1708 65.3966 18.1863 78.5771 18.1708C82.7166 18.1863 86.8716 18.1708 91.0263 18.1708C97.8734 18.1708 104.736 18.233 111.583 18.2019C111.786 18.1552 111.848 18.0152 111.771 17.7662V17.7662ZM30.8351 8.47596C31.1463 7.60451 31.9864 7.01317 32.8737 6.81087C34.5854 6.40627 36.4995 7.9313 36.3595 9.72088C36.375 11.4793 34.5229 12.911 32.827 12.5064C32.1423 12.273 31.4884 11.9151 31.0685 11.3082C30.5239 10.4834 30.3994 9.37852 30.8351 8.47596ZM77.2707 7.79125C77.9865 6.99761 79.1225 6.54633 80.1807 6.82643C80.9744 7.05986 81.7524 7.57339 82.0948 8.35146C82.7795 9.68976 82.2504 11.4949 80.9121 12.1952C79.7291 12.8487 78.2355 12.5375 77.333 11.5883C76.4148 10.5456 76.3523 8.83387 77.2707 7.79125Z" fill="url(#paint1_radial)" stroke="#FCD109" stroke-width="0.094"/>
<path d="M81.237 24.6049C81.4546 24.6515 80.1029 23.3061 80.3675 23.2438C80.6164 23.275 81.5604 22.5422 82.7017 23.14C83.8427 23.7379 83.5597 25.1371 83.4303 25.6559C83.2762 26.2734 82.8831 26.6674 82.5719 26.9786C82.4007 27.1187 82.017 27.3365 81.7835 27.321C81.9236 26.5584 81.4723 26.434 81.4412 25.6559L81.237 24.6049Z" fill="url(#paint2_linear)" stroke="#FCD109" stroke-width="0.094"/>
<path d="M31.4912 25.4484C31.4601 26.2265 31.0085 26.351 31.1488 27.1135C30.9154 27.1291 30.5313 26.9112 30.3603 26.7712C30.0491 26.4599 29.6565 26.0659 29.5021 25.4484C29.3726 24.9298 29.0896 23.5306 30.2307 22.9326C31.3718 22.3346 32.3159 23.0674 32.5649 23.0364C32.8295 23.0987 31.4778 24.4441 31.6953 24.3974L31.4912 25.4484Z" fill="url(#paint3_linear)" stroke="#FCD109" stroke-width="0.094"/>
<path d="M79.1997 34.5736C79.4338 34.3703 79.5894 34.3703 79.9006 34.3703C78.0332 38.4163 75.8546 42.4623 72.5791 45.6124C72.2288 45.9252 71.8587 46.2151 71.4713 46.4805C71.0962 46.7548 70.7287 47.0122 70.3631 47.2744C70.0052 47.5229 69.6495 47.7729 69.3031 48.0335C68.4161 48.5159 67.638 49.1852 66.6576 49.4807C64.868 50.3366 62.9387 50.9124 60.9935 51.317C60.231 51.4416 59.4529 51.6282 58.6749 51.6438C57.7101 51.924 56.683 51.7216 55.7026 51.7838C55.158 51.8772 54.6752 51.566 54.1465 51.6282C53.6874 51.5633 53.2294 51.4855 52.7742 51.3946C52.3123 51.3003 51.8535 51.1913 51.3985 51.068C44.2647 48.8426 37.2621 43.396 35.2219 36.03C35.13 35.5339 35.0837 35.0305 35.0834 34.5259C35.3011 34.9617 35.5269 35.3943 35.7605 35.8228C38.6626 42.1511 44.4204 47.1308 51.2226 48.6323C51.7747 48.8841 52.3723 48.7959 52.9015 49.0137C53.3839 49.0137 53.8508 48.9982 54.3176 49.1538C55.9205 49.1847 57.5233 49.1693 59.1262 49.1693C59.3437 49.1849 59.546 49.076 59.7642 49.0293C62.4355 48.9387 65.0529 48.2101 67.49 47.1053C67.9777 46.8843 68.4579 46.6482 68.9299 46.3992C69.3431 46.1818 69.7464 45.9461 70.1387 45.6931C70.5241 45.4446 70.8988 45.1801 71.2618 44.9C74.1429 42.6179 76.6327 39.6613 78.3235 36.2612C78.6453 35.6493 78.9397 35.0827 79.1997 34.5736Z" fill="#BDA727" stroke="#BDA727" stroke-width="0.094"/>
<path d="M76.6635 48.4068C81.2853 45.6991 86.6388 44.392 91.9608 44.143C93.6881 43.9874 95.431 44.034 97.1428 44.2519C98.2632 44.5164 99.4148 44.8277 100.302 45.5902C99.8505 45.6213 99.4148 45.419 98.9635 45.3568C97.6875 45.1078 96.3647 45.2012 95.0731 45.17C91.3225 45.17 87.5413 45.4657 83.9155 46.4928C82.017 47.0685 80.1185 47.7377 78.3912 48.7336C75.4033 50.3831 72.7112 52.5618 70.5326 55.1761C66.6422 59.6424 64.3547 65.3066 63.2498 71.0801C62.7207 74.1766 62.1135 77.2576 61.6314 80.3699C60.8533 80.4477 60.0597 80.4012 59.2816 80.4012C55.8581 80.3856 52.4345 80.3699 49.011 80.3392C48.2796 80.3699 47.5635 80.1992 46.8324 80.2456C40.6078 80.2765 34.3832 80.23 28.1586 80.23L28.283 80.1832C32.9048 79.7004 37.5422 79.1558 42.1639 78.7048C48.0303 78.6738 53.8818 78.6889 59.7485 78.7048C59.9349 78.6738 60.262 78.7667 60.2931 78.5024C60.7755 75.9815 61.2424 73.4607 61.7245 70.9395C62.3939 67.4386 63.4521 63.9838 65.0861 60.7937C67.6537 55.6583 71.7153 51.3011 76.6635 48.4068Z" fill="#0D69B3" stroke="#0D69B3" stroke-width="0.094"/>
<path d="M83.9155 46.4928C87.5413 45.4657 91.3228 45.17 95.0731 45.17C96.3647 45.2012 97.6874 45.1078 98.9635 45.3568C99.4145 45.419 99.8502 45.6213 100.302 45.5902C101.033 46.1815 101.469 47.053 101.796 47.9244C102.512 49.9941 102.916 52.1416 103.258 54.3046C103.274 55.1761 103.43 56.1565 102.963 56.9501C102.527 57.7282 101.656 58.1017 100.831 58.3351C97.8275 59.1132 94.6842 58.3816 91.6807 59.1132C89.2067 59.6422 86.9035 61.0115 85.3316 62.988C83.4799 65.2909 82.4994 68.1539 81.9547 71.0177C81.5347 73.5698 81.0055 76.1218 80.5853 78.6894C80.3986 79.2653 80.2898 79.8878 80.1807 80.4949C83.1215 80.5417 86.063 80.4948 89.0041 80.5258C90.1242 80.4948 91.2446 80.5568 92.3654 80.479C92.9878 81.9108 92.8478 83.5293 92.6455 85.0387C92.3965 86.7349 91.9919 88.4154 91.2294 89.9715C90.5911 91.2942 89.5332 92.5082 88.086 92.975C87.339 93.2707 86.5298 93.2085 85.7362 93.2085C83.1215 93.2085 80.5072 93.2394 77.8932 93.2085C77.473 95.1227 77.1929 97.0833 76.8194 99.0285C76.135 102.81 75.4657 106.607 74.7809 110.404C74.7653 110.529 74.7498 110.793 74.7498 110.933V110.949C67.9494 110.949 61.1645 110.964 54.3641 110.949C54.3799 110.887 54.3953 110.777 54.4108 110.715C54.4267 110.637 54.442 110.466 54.4577 110.373C54.4734 110.498 54.4886 110.731 54.5045 110.84C54.9245 110.887 55.6872 111.104 55.7961 110.498C56.8543 104.771 57.8347 99.0131 58.924 93.2863C58.504 93.1929 58.0681 93.1929 57.6324 93.2707C57.5704 93.4886 57.5079 93.7063 57.4301 93.9241L57.5234 93.2239C53.291 93.208 49.0424 93.2239 44.81 93.208C43.7826 93.1773 42.7247 93.208 41.6977 93.0837C39.9392 93.0058 38.1652 93.0681 36.4068 92.8968C34.2282 92.8968 32.0651 92.6946 29.8865 92.6946C28.1747 92.5234 26.4474 92.5855 24.7201 92.5077C23.5999 92.368 22.4481 92.4299 21.3124 92.3834C19.4606 92.1809 17.5776 92.3215 15.7258 92.1187C13.7651 92.1346 11.8043 91.9631 9.84355 91.9165C9.85911 91.901 9.87467 91.8387 9.87467 91.8232C10.5283 91.8387 11.1663 91.7919 11.8199 91.7763C13.2671 91.5897 14.7299 91.7141 16.1771 91.5119C17.6866 91.5119 19.1805 91.3095 20.6899 91.3095C22.0282 91.1229 23.3821 91.2317 24.7201 91.0451C26.2921 91.0451 27.8324 90.8426 29.4044 90.8272C30.696 90.6561 32.0032 90.7494 33.2948 90.5783C34.8042 90.5938 36.2981 90.3604 37.8076 90.3758C39.286 90.2043 40.7951 90.2512 42.2735 90.0955C42.1337 89.5199 42.0245 88.9443 41.9003 88.3682C41.7914 88.0101 41.3556 88.0879 41.0755 88.0414C37.6987 87.5587 34.3374 87.0764 30.9761 86.6096C31.194 86.4381 31.4896 86.5159 31.7386 86.4853C34.353 86.2825 36.9517 86.0491 39.5661 85.8628C40.1574 85.8315 40.7332 85.7227 41.3245 85.7072C41.06 84.8978 40.9044 84.011 40.5464 83.2639C34.9602 82.408 29.3733 81.6455 23.8022 80.7275C25.2495 80.4941 26.7122 80.385 28.1595 80.2294C34.3841 80.2294 40.6087 80.2762 46.8333 80.2449C47.5644 80.1984 48.2805 80.3696 49.0119 80.3386C52.4355 80.3696 55.859 80.3855 59.2825 80.4005C60.0606 80.4005 60.8542 80.4474 61.6323 80.3696C62.1147 77.2573 62.7216 74.1759 63.2507 71.0795C64.3556 65.3059 66.6431 59.6418 70.5335 55.1758C72.7121 52.5613 75.4043 50.3827 78.3921 48.7332C80.1185 47.7377 82.017 47.0685 83.9155 46.4928Z" fill="#107BD4" stroke="#107BD4" stroke-width="0.094"/>
<path d="M80.5853 78.6894C83.542 78.7053 86.5146 78.6738 89.4865 78.7053C90.6692 78.7053 91.883 79.3587 92.3654 80.479C91.245 80.5568 90.1246 80.4949 89.0041 80.5258C86.063 80.4949 83.1216 80.5417 80.1807 80.4949C80.2897 79.8878 80.3983 79.2653 80.5853 78.6894V78.6894ZM57.6321 93.2707C58.0678 93.1929 58.5038 93.1929 58.9237 93.2863C57.8344 99.0131 56.854 104.771 55.7958 110.498C55.6869 111.104 54.9242 110.887 54.5042 110.84C54.4883 110.731 54.4731 110.498 54.4575 110.373C55.4379 104.895 56.3869 99.4021 57.4298 93.9246C57.5076 93.7063 57.5698 93.4887 57.6321 93.2707Z" fill="#0D69B3" stroke="#0D69B3" stroke-width="0.094"/>
<path d="M81.9463 25.0406C81.8219 24.8072 81.8064 24.527 81.8064 24.2625L81.6818 24.2781C81.4952 23.5934 80.9196 22.9398 80.1725 22.9086C79.6121 22.862 78.9118 22.8775 78.5854 23.4066C77.9629 24.2469 78.2583 25.3207 78.2273 26.2699C78.2273 26.3322 78.243 26.4411 78.243 26.5034C78.243 27.1414 78.1652 27.7638 78.0563 28.3863C77.9629 28.573 77.9164 28.7753 77.9164 28.9932C77.652 30.456 77.1226 31.9032 76.4071 33.2259C76.267 33.4127 76.1578 33.615 76.1114 33.8328C75.6446 34.642 75.0843 35.389 74.5086 36.1359C74.415 36.2138 74.3372 36.3071 74.2594 36.4005C73.8547 36.8985 73.4193 37.3186 72.9677 37.7543C72.8589 37.8166 72.7811 37.8944 72.6875 37.9566C72.1586 38.4702 71.5671 38.9526 70.9291 39.3416C70.8513 39.3883 70.7735 39.4505 70.68 39.5128C66.6961 42.1427 61.8567 43.232 57.1414 43.2787C53.1423 43.4032 49.1115 42.5473 45.5013 40.82C45.4393 40.7888 45.2837 40.7266 45.2211 40.6955C44.6144 40.3687 43.9919 40.0886 43.4316 39.684C43.3071 39.6217 43.1826 39.5439 43.0425 39.4817C42.4667 39.1393 41.9221 38.7658 41.4086 38.3301C41.2374 38.1745 41.0507 38.05 40.8639 37.91C40.3037 37.4587 39.7279 36.9763 39.2458 36.4316C39.1213 36.2916 38.9965 36.1671 38.8723 36.0426C37.1765 34.2841 35.8537 32.1366 35.1535 29.8024C34.484 27.9506 34.5777 25.9276 34.4999 23.9824C33.9393 23.1265 32.757 22.6441 31.8233 23.1732C31.4343 23.4533 31.3876 23.9668 31.0919 24.3247C30.6095 29.46 32.8037 34.5798 36.305 38.2834C36.305 38.4079 36.3673 38.4857 36.4765 38.5324C37.099 39.1082 37.7055 39.6995 38.328 40.2598C38.4369 40.3687 38.5614 40.4776 38.7015 40.571C39.3239 41.0845 39.9931 41.5514 40.6467 42.0338C40.7712 42.1271 40.8957 42.2049 41.0357 42.2827C41.8916 42.7807 42.7005 43.3721 43.6189 43.7144C43.6812 43.7611 43.7901 43.8389 43.8523 43.87C46.809 45.2861 49.9992 46.2509 53.2671 46.5622C53.625 46.5622 53.9829 46.5933 54.3408 46.6711C55.897 46.7645 57.4531 46.7178 59.0093 46.6867C63.8175 46.2665 68.7819 45.0994 72.7968 42.2672L72.8435 42.3294C72.968 42.2205 73.0769 42.1271 73.2014 42.0338C73.8397 41.5669 74.4622 41.0689 75.0846 40.5554C75.2244 40.4465 75.38 40.322 75.5204 40.1819C76.2049 39.435 76.9987 38.7503 77.5745 37.8944L77.6679 37.9411C77.7145 37.8633 77.7924 37.7077 77.8394 37.6299C78.3681 36.914 78.8509 36.1671 79.3177 35.4201C79.3485 35.3734 79.4263 35.2956 79.4574 35.2489L79.3955 35.1867C79.4422 35.1244 79.5511 35 79.5978 34.9377C80.4537 33.1948 81.2159 31.3741 81.4807 29.4445C81.5897 29.3978 81.6521 29.3044 81.6521 29.1955C81.6678 28.573 81.8855 27.9817 81.8234 27.3592C81.9618 26.5967 81.9775 25.8187 81.9463 25.0406V25.0406Z" fill="white" stroke="white" stroke-width="0.094"/>
<path d="M82.2865 24.2037C79.8457 24.3498 77.5555 23.5146 75.3358 22.7513M29.8963 24.5149C31.1577 24.9106 34.0557 23.915 34.876 24.8261L29.8963 24.5149ZM30.6226 28.3533C31.8314 27.9327 34.4235 26.9367 35.4984 27.5234L30.6226 28.3533ZM31.8675 32.1919C32.4518 32.3811 33.6037 31.3545 34.1759 31.0537C35.0271 30.606 35.9004 30.2629 36.8472 30.1171L31.8675 32.1919ZM33.7349 36.2379C34.3376 35.3814 35.059 34.67 35.9297 34.0616C36.7927 33.4587 39.1537 31.848 40.1669 32.3993L33.7349 36.2379ZM35.4984 39.1427C36.1825 38.5989 36.4611 37.6369 37.1794 37.0654C38.0484 36.3742 39.3797 36.2502 40.2707 35.8228L35.4984 39.1427ZM38.4292 41.2952C38.6338 39.7907 40.1615 37.9752 41.6193 38.1051L38.4292 41.2952ZM40.6856 43.3962C41.4559 43.319 42.1076 41.5948 42.6284 41.0104C43.409 40.1351 44.2176 39.8659 45.2501 39.5576L40.6856 43.3962ZM45.1464 45.2636C45.0966 44.1749 46.2216 41.0534 47.5326 41.2176L45.1464 45.2636ZM48.4663 46.301C48.4117 45.0144 49.077 41.1444 50.645 41.0101L48.4663 46.301ZM51.8899 48.3759C51.5925 46.5766 51.6118 43.9738 53.0308 42.6699L51.8899 48.3759ZM56.1435 48.7909C55.9852 47.2911 54.4949 44.2592 56.1435 43.0849V48.7909ZM60.708 47.7534C59.9965 46.9285 59.5829 43.6746 59.8779 42.7737L60.708 47.7534ZM65.0652 47.0271C64.5165 46.0307 63.8365 45.095 63.6286 43.9383C63.5044 43.2471 63.7221 42.2624 63.6127 41.7362L65.0652 47.0271ZM68.6963 45.471C67.506 44.6925 67.1756 41.831 67.555 40.5951L68.6963 45.471ZM72.2235 43.9148C71.3769 42.0987 70.4742 40.6905 70.4598 38.6239L72.2235 43.9148ZM75.647 40.5951C74.3315 39.7101 72.6527 38.1014 72.846 36.3417L75.647 40.5951ZM79.2782 37.794C77.2793 37.3511 74.8805 35.5627 73.676 33.9555L79.2782 37.794ZM80.938 34.3705C79.496 34.0613 74.7316 32.2025 75.0246 30.3245L80.938 34.3705ZM82.4941 30.7395C80.4851 30.003 77.5624 29.3408 75.9583 27.9384L82.4941 30.7395ZM83.5314 27.4196C82.266 27.5279 80.4531 26.9153 79.1669 26.6934C77.7387 26.447 76.4144 25.9657 75.0246 25.6559L83.5314 27.4196Z" stroke="#D1D1D1" stroke-width="2"/>
<defs>
<linearGradient id="paint0_linear" x1="56.4883" y1="19.6023" x2="56.4883" y2="111.067" gradientUnits="userSpaceOnUse">
<stop stop-color="#F7E830"/>
<stop offset="1" stop-color="#FDCB06"/>
</linearGradient>
<radialGradient id="paint1_radial" cx="0" cy="0" r="1" gradientUnits="userSpaceOnUse" gradientTransform="translate(56.0113 61.3195) scale(74.3965)">
<stop offset="0.596" stop-color="#F29405"/>
<stop offset="0.736" stop-color="#F7D01E"/>
<stop offset="1" stop-color="#FDCB06"/>
</radialGradient>
<linearGradient id="paint2_linear" x1="81.939" y1="22.9034" x2="81.965" y2="27.2346" gradientUnits="userSpaceOnUse">
<stop stop-color="#FADA1C"/>
<stop offset="1" stop-color="#FDCB06"/>
</linearGradient>
<linearGradient id="paint3_linear" x1="30.9931" y1="22.6959" x2="30.9671" y2="27.0272" gradientUnits="userSpaceOnUse">
<stop stop-color="#FADA1C"/>
<stop offset="1" stop-color="#FDCB06"/>
</linearGradient>
</defs>
</svg>
