<svg width="47" height="57" viewBox="0 0 47 57" fill="none" xmlns="http://www.w3.org/2000/svg">
<path d="M20.357 6.009L13.887 17.558L6.41099 30.933L6.00099 31.653L5.39199 32.746L2.67199 37.602C1.44299 34.969 0.709993 32.051 0.622993 28.983C0.597993 28.673 0.597992 28.35 0.597992 28.039C0.597992 27.753 0.609993 27.455 0.622993 27.17C0.870993 21.979 2.87099 17.272 6.01299 13.634C9.60299 9.473 14.67 6.667 20.357 6.009Z" fill="url(#paint0_linear)"/>
<path d="M32.217 10.964L25.337 23.259L17.848 36.634L17.438 37.354L11.826 47.4L11.739 47.549L10.373 49.971C6.84599 47.91 3.93999 44.929 1.98999 41.352L7.10699 32.212L7.51699 31.492L15.005 18.117L20.457 8.381L20.494 8.306C20.506 8.306 20.506 8.306 20.519 8.306C21.214 8.281 21.935 8.269 22.643 8.306C26.12 8.467 29.361 9.411 32.217 10.964Z" fill="url(#paint1_linear)"/>
<path d="M42.873 18.08L41.01 21.408L36.788 28.971L29.3 42.334L28.903 43.067L24.743 50.493H24.731C23.8 50.568 22.868 50.592 21.912 50.543C18.658 50.394 15.578 49.537 12.846 48.146H12.834L12.909 48.009L18.56 37.913L18.97 37.193L26.446 23.818L34.655 9.164C38.153 11.324 41.022 14.416 42.873 18.08Z" fill="url(#paint2_linear)"/>
<path d="M43.928 31.678C43.916 31.951 43.891 32.224 43.866 32.498C43.419 37.937 41.047 42.781 37.446 46.395C37.235 46.606 37.024 46.805 36.8 47.004C33.596 49.984 29.498 52.034 24.99 52.729C24.953 52.741 24.928 52.741 24.891 52.741L26.245 50.319L30.008 43.613L30.405 42.893L37.906 29.518L42.104 22.017L42.179 21.893C42.191 21.93 42.216 21.955 42.216 21.992C43.456 24.96 44.09 28.251 43.928 31.678Z" fill="url(#paint3_linear)"/>
<path d="M20.465 8.393L19.379 7.789L23.719 0L24.805 0.604L20.465 8.393Z" fill="url(#paint4_linear)"/>
<path d="M42.098 22.013L41.014 21.407L45.47 13.448L46.553 14.055L42.098 22.013Z" fill="url(#paint5_linear)"/>
<path d="M12.918 48.009L12.844 48.145L7.86399 57L6.78399 56.391L10.373 49.971L11.739 47.549L11.826 47.4L12.906 48.009H12.918Z" fill="url(#paint6_linear)"/>
<defs>
<linearGradient id="paint0_linear" x1="-2.74701" y1="41.934" x2="10.886" y2="13.707" gradientUnits="userSpaceOnUse">
<stop stop-color="#552B8E"/>
<stop offset="1" stop-color="#F3487F"/>
</linearGradient>
<linearGradient id="paint1_linear" x1="7.17099" y1="46.724" x2="20.804" y2="18.497" gradientUnits="userSpaceOnUse">
<stop stop-color="#552B8E"/>
<stop offset="1" stop-color="#F3487F"/>
</linearGradient>
<linearGradient id="paint2_linear" x1="18.61" y1="52.248" x2="32.242" y2="24.022" gradientUnits="userSpaceOnUse">
<stop stop-color="#552B8E"/>
<stop offset="1" stop-color="#F3487F"/>
</linearGradient>
<linearGradient id="paint3_linear" x1="28.298" y1="56.928" x2="41.931" y2="28.702" gradientUnits="userSpaceOnUse">
<stop stop-color="#552B8E"/>
<stop offset="1" stop-color="#F3487F"/>
</linearGradient>
<linearGradient id="paint4_linear" x1="2.61499" y1="44.523" x2="16.248" y2="16.297" gradientUnits="userSpaceOnUse">
<stop stop-color="#552B8E"/>
<stop offset="1" stop-color="#F3487F"/>
</linearGradient>
<linearGradient id="paint5_linear" x1="25.504" y1="55.578" x2="39.137" y2="27.352" gradientUnits="userSpaceOnUse">
<stop stop-color="#552B8E"/>
<stop offset="1" stop-color="#F3487F"/>
</linearGradient>
<linearGradient id="paint6_linear" x1="11.489" y1="48.809" x2="25.122" y2="20.583" gradientUnits="userSpaceOnUse">
<stop stop-color="#552B8E"/>
<stop offset="1" stop-color="#F3487F"/>
</linearGradient>
</defs>
</svg>
