<svg width="58" height="51" viewBox="0 0 58 51" fill="none" xmlns="http://www.w3.org/2000/svg">
<path d="M52.0938 28.8281C51.9922 28.9219 51.9063 29 51.8047 29.0859L44.6641 36.1719C41.9453 38.8672 39.2344 41.5547 36.5156 44.2578C34.625 46.1328 32.7344 48.0078 30.8438 49.8906C30.0234 50.7031 28.6797 50.7031 27.8594 49.8906C26.0781 48.1172 24.2969 46.3516 22.5078 44.5859C19.7969 41.8828 17.0781 39.1797 14.3672 36.4922C11.8984 34.0469 9.4375 31.5938 6.96094 29.1484C6.94532 29.1328 6.92188 29.1016 6.89844 29.0859C6.20313 28.5078 5.56251 27.875 4.98438 27.1875C2.45313 24.1953 1.00782 20.2891 1.22657 16.0234C1.33594 14.0156 1.82032 12.1016 2.60938 10.3516C4.24219 6.75782 7.17188 3.8672 10.7813 2.28907C12.4766 1.53907 14.3125 1.08595 16.2422 0.97657C20.5 0.750008 24.4219 2.18751 27.3984 4.70313C28.1016 5.30469 28.7578 5.95313 29.3516 6.66407C29.4453 6.56251 29.5234 6.46094 29.625 6.35938L52.0938 28.8281Z" fill="#964BFF"/>
<path d="M52.0938 28.8281C51.9922 28.9219 51.9062 29 51.8047 29.0859L44.6641 36.1719C41.9453 38.8672 39.2344 41.5547 36.5156 44.2578L2.60938 10.3516C4.24219 6.75782 7.17187 3.85938 10.7812 2.28907C12.4766 1.53907 14.3125 1.08595 16.2422 0.97657C20.5 0.750008 24.4219 2.18751 27.3984 4.70313C28.1016 5.30469 28.7578 5.95313 29.3516 6.65626C29.4453 6.56251 29.5234 6.46094 29.625 6.35938L52.0938 28.8281Z" fill="#BE3CFA"/>
<path d="M52.0938 28.8281C51.9922 28.9219 51.9062 29 51.8047 29.0859L44.6641 36.1719L10.7812 2.28907C12.4766 1.53907 14.3125 1.08595 16.2422 0.97657C20.5 0.750008 24.4219 2.18751 27.3984 4.70313C28.1016 5.30469 28.7578 5.95313 29.3516 6.65626C29.4453 6.56251 29.5234 6.46094 29.625 6.35938L52.0938 28.8281Z" fill="#DC46E1"/>
<path d="M48.375 2.48438L37.0625 13.7969L29.625 6.35938C30.1406 5.76563 30.7031 5.21094 31.3047 4.70313C31.4766 4.5625 31.6563 4.41407 31.8281 4.28125L31.8828 4.22657C34.7891 2.00782 38.4766 0.765628 42.4609 0.976566C44.5625 1.09375 46.5625 1.625 48.375 2.48438Z" fill="#FF2373"/>
<path d="M53.7266 27.1875C53.2266 27.7734 52.6797 28.3203 52.0938 28.8281C51.9922 28.9219 51.9062 29 51.8047 29.0859L44.6641 36.1719C41.9453 38.8672 39.2344 41.5547 36.5156 44.2578C34.625 46.1328 32.7344 48.0078 30.8438 49.8906C30.0234 50.7031 28.6797 50.7031 27.8594 49.8906C26.0781 48.1172 24.2969 46.3516 22.5078 44.5859C19.7969 41.8828 17.0781 39.1797 14.3672 36.4922C11.8984 34.0469 9.4375 31.5937 6.96094 29.1484L14.1875 21.9297L22.3047 13.8047L29.6875 6.42187L37.0625 13.7969L48.375 2.48438H48.3828C51.9375 4.1875 54.7734 7.16406 56.2812 10.8125C56.9609 12.4297 57.3828 14.1875 57.4766 16.0234C57.6953 20.2891 56.25 24.1953 53.7266 27.1875Z" fill="#FF2373"/>
<path d="M53.7266 27.1875C53.2266 27.7734 52.6797 28.3203 52.0938 28.8281C51.9922 28.9219 51.9062 29 51.8047 29.0859L44.6641 36.1719C41.9453 38.8672 39.2344 41.5547 36.5156 44.2578C34.625 46.1328 32.7344 48.0078 30.8438 49.8906C30.0234 50.7031 28.6797 50.7031 27.8594 49.8906C26.0781 48.1172 24.2969 46.3516 22.5078 44.5859C19.7969 41.8828 17.0781 39.1797 14.3672 36.4922L21.5625 29.3047L29.6797 21.1875L37.0625 13.7969L48.375 2.48438H48.3828C51.9375 4.1875 54.7734 7.16406 56.2812 10.8125C56.9609 12.4297 57.3828 14.1875 57.4766 16.0234C57.6953 20.2891 56.25 24.1953 53.7266 27.1875Z" fill="#FF784B"/>
<path d="M53.7266 27.1875C53.2266 27.7734 52.6797 28.3203 52.0938 28.8281C51.9922 28.9219 51.9062 29 51.8047 29.0859L44.6641 36.1719C41.9453 38.8672 39.2344 41.5547 36.5156 44.2578C34.625 46.1328 32.7344 48.0078 30.8438 49.8906C30.0234 50.7031 28.6797 50.7031 27.8594 49.8906C26.0781 48.1172 24.2969 46.3516 22.5078 44.5859L29.6797 37.4219L37.7969 29.3047L45.1797 21.9141L56.2812 10.8125C56.9609 12.4297 57.3828 14.1875 57.4766 16.0234C57.6953 20.2891 56.25 24.1953 53.7266 27.1875Z" fill="#FFBE0A"/>
<path d="M57.4767 15.5704C57.3829 13.7344 56.961 11.9766 56.2813 10.3594C54.7735 6.71098 51.9376 3.73442 48.3829 2.03129H48.3751C46.5626 1.17191 44.5626 0.640664 42.4688 0.523476C38.4766 0.312538 34.7891 1.55473 31.8907 3.77348L31.836 3.82817C31.6641 3.96098 31.4766 4.10942 31.3048 4.25004C30.7032 4.75786 30.1407 5.31254 29.6251 5.90629C29.5235 6.00786 29.4454 6.10942 29.3516 6.20317C28.7579 5.50004 28.1016 4.85161 27.3985 4.25004C24.4219 1.73441 20.5001 0.296913 16.2422 0.523476C14.3126 0.632851 12.4766 1.08598 10.7813 1.83598C7.17192 3.40629 4.24223 6.30473 2.60941 9.89849C1.82035 11.6485 1.33597 13.5626 1.2266 15.5704C1.00785 19.836 2.45316 23.7423 4.98442 26.7266C5.56254 27.4219 6.20317 28.0548 6.89848 28.6329C6.92192 28.6485 6.94536 28.6719 6.96098 28.6954C9.43755 31.1329 11.8985 33.586 14.3672 36.0391C17.0782 38.7266 19.7969 41.4298 22.5079 44.1329C24.2969 45.8985 26.0782 47.6563 27.8594 49.4376C28.6798 50.2501 30.0235 50.2501 30.8438 49.4376C32.7344 47.5548 34.6251 45.6798 36.5157 43.8048C39.2345 41.1017 41.9454 38.4141 44.6641 35.7188L51.8048 28.6329C51.9063 28.5469 51.9923 28.4688 52.0938 28.3751C52.6798 27.8673 53.2267 27.3204 53.7267 26.7266C56.2501 23.7423 57.6954 19.836 57.4767 15.5704Z" stroke="#472B29" stroke-width="0.700001" stroke-miterlimit="10" stroke-linecap="round" stroke-linejoin="round"/>
<path d="M33.422 2.93753C29.2032 7.1641 24.9766 11.3829 20.7579 15.6094" stroke="#472B29" stroke-width="0.145349" stroke-miterlimit="10" stroke-linecap="round"/>
<path d="M16.2266 20.1329C15.3282 21.0391 14.4219 21.9454 13.5157 22.8516" stroke="#472B29" stroke-width="0.145349" stroke-miterlimit="10" stroke-linecap="round"/>
<path d="M11.7032 24.6563C10.1953 26.1641 8.68753 27.6798 7.17972 29.1876" stroke="#472B29" stroke-width="0.145349" stroke-miterlimit="10" stroke-linecap="round"/>
<path d="M37.0469 13.7969C40.9688 9.87504 44.8907 5.95316 48.8126 2.03128" stroke="#472B29" stroke-width="0.145349" stroke-miterlimit="10" stroke-linecap="round"/>
<path d="M28.8985 21.9454C28.6016 22.2422 28.2969 22.5469 27.9922 22.8516" stroke="#472B29" stroke-width="0.145349" stroke-miterlimit="10" stroke-linecap="round"/>
<path d="M26.1876 24.6563C25.2813 25.5626 24.3751 26.4688 23.4688 27.3751" stroke="#472B29" stroke-width="0.145349" stroke-miterlimit="10" stroke-linecap="round"/>
<path d="M21.6563 29.1876C19.25 31.5938 16.836 34.0079 14.4219 36.4219" stroke="#472B29" stroke-width="0.145349" stroke-miterlimit="10" stroke-linecap="round"/>
<path d="M22.5626 44.5704C25.8829 41.2501 29.2032 37.9298 32.5235 34.6094" stroke="#472B29" stroke-width="0.145349" stroke-miterlimit="10" stroke-linecap="round"/>
<path d="M34.3282 32.8048C35.2344 31.8985 36.1407 30.9922 37.0469 30.086" stroke="#472B29" stroke-width="0.145349" stroke-miterlimit="10" stroke-linecap="round"/>
<path d="M38.8516 28.2813C39.4532 27.6797 40.0626 27.0704 40.6641 26.4688" stroke="#472B29" stroke-width="0.145349" stroke-miterlimit="10" stroke-linecap="round"/>
<path d="M48.8126 18.3204C51.2188 15.9141 53.6329 13.5 56.047 11.086" stroke="#472B29" stroke-width="0.145349" stroke-miterlimit="10" stroke-linecap="round"/>
<path d="M10.7969 2.03128C12.0078 3.24222 13.211 4.44535 14.4219 5.65629" stroke="#472B29" stroke-width="0.145349" stroke-miterlimit="10" stroke-linecap="round"/>
<path d="M16.2266 7.46097C16.836 8.07034 17.4375 8.67191 18.0391 9.27347" stroke="#472B29" stroke-width="0.145349" stroke-miterlimit="10" stroke-linecap="round"/>
<path d="M2.65628 10.1797C3.85941 11.3829 5.07035 12.5938 6.27347 13.7969" stroke="#472B29" stroke-width="0.145349" stroke-miterlimit="10" stroke-linecap="round"/>
<path d="M8.08597 15.6094C8.68753 16.211 9.28909 16.8125 9.89847 17.4219" stroke="#472B29" stroke-width="0.145349" stroke-miterlimit="10" stroke-linecap="round"/>
<path d="M11.7032 19.2266C12.0078 19.5313 12.3047 19.8282 12.6094 20.1329" stroke="#472B29" stroke-width="0.145349" stroke-miterlimit="10" stroke-linecap="round"/>
<path d="M34.3282 16.5157C34.6329 16.211 34.9298 15.9141 35.2344 15.6094" stroke="#472B29" stroke-width="0.145349" stroke-miterlimit="10" stroke-linecap="round"/>
</svg>
